<svg width="40" height="40" viewBox="0 0 40 40" fill="none" xmlns="http://www.w3.org/2000/svg">
<g clip-path="url(#clip0_1210_978)">
<circle cx="20" cy="20" r="20" stroke="#6F6F6F"/>
<path d="M20 9C26.0655 9 31 13.9508 31 20.0364C31 25.5275 26.982 30.093 21.741 30.9333V22.7874H24.2365L24.61 20.0263H21.741C21.741 20.0263 21.741 18.3593 21.741 17.9359C21.741 17.1077 22.299 16.6828 22.8915 16.6828C23.484 16.6828 24.711 16.6658 24.711 16.6658V13.995C24.711 13.995 23.6195 13.8685 22.5045 13.8685C21.568 13.8685 20.536 14.1334 19.71 14.9862C18.87 15.8531 18.749 16.885 18.749 18.4476C18.749 18.8996 18.749 20.0268 18.749 20.0268H16.2475V22.7879H18.749V31C13.2705 30.3739 9 25.697 9 20.0364C9 13.9508 13.9345 9 20 9Z" fill="#6F6F6F"/>
</g>
<defs>
<clipPath id="clip0_1210_978">
<rect width="40" height="40" fill="white"/>
</clipPath>
</defs>
</svg>
