<svg width="24" height="24" viewBox="0 0 24 24" fill="none" xmlns="http://www.w3.org/2000/svg">
<g id="Icons">
<mask id="mask0_635_331" style="mask-type:alpha" maskUnits="userSpaceOnUse" x="0" y="0" width="24" height="24">
<rect id="Bounding box" width="24" height="24" fill="#D9D9D9"/>
</mask>
<g mask="url(#mask0_635_331)">
<path id="arrow_drop_down" d="M11.3 15.5L8.69998 12.9C8.38331 12.5833 8.31248 12.2208 8.48748 11.8125C8.66248 11.4042 8.97498 11.2 9.42498 11.2H14.575C15.025 11.2 15.3375 11.4042 15.5125 11.8125C15.6875 12.2208 15.6166 12.5833 15.3 12.9L12.7 15.5C12.6 15.6 12.4916 15.675 12.375 15.725C12.2583 15.775 12.1333 15.8 12 15.8C11.8666 15.8 11.7416 15.775 11.625 15.725C11.5083 15.675 11.4 15.6 11.3 15.5Z" fill="#161616"/>
</g>
</g>
</svg>
