<svg width="40" height="40" viewBox="0 0 40 40" fill="none" xmlns="http://www.w3.org/2000/svg">
<g clip-path="url(#clip0_1210_996)">
<circle cx="20" cy="20" r="20" stroke="#6F6F6F"/>
<path d="M19.9102 10C10.7192 10 10 10.7197 10 19.9102V20.0898C10 29.2803 10.7192 30 19.9102 30H20.0898C29.2808 30 30 29.2803 30 20.0898V20C30 10.726 29.274 10 20 10H19.9102ZM25.9971 13C26.5496 12.9985 26.9985 13.4446 27 13.9971C27.0015 14.5496 26.5554 14.9985 26.0029 15C25.4504 15.0015 25.0015 14.5554 25 14.0029C24.9985 13.4504 25.4446 13.0015 25.9971 13ZM19.9883 15C22.7493 14.9935 24.9935 17.2273 25 19.9883C25.0065 22.7493 22.7727 24.9935 20.0117 25C17.2507 25.0065 15.0065 22.7727 15 20.0117C14.9935 17.2507 17.2273 15.0065 19.9883 15ZM19.9932 17C18.3362 17.004 16.996 18.3508 17 20.0078C17.004 21.6643 18.3503 23.004 20.0068 23C21.6638 22.996 23.004 21.6497 23 19.9932C22.996 18.3362 21.6497 16.996 19.9932 17Z" fill="#6F6F6F"/>
</g>
<defs>
<clipPath id="clip0_1210_996">
<rect width="40" height="40" fill="white"/>
</clipPath>
</defs>
</svg>
