<svg width="40" height="40" viewBox="0 0 40 40" fill="none" xmlns="http://www.w3.org/2000/svg">
<g clip-path="url(#clip0_1210_960)">
<circle cx="20" cy="20" r="20" stroke="#6F6F6F"/>
<path d="M24.1135 10C29.5725 10 30 10.427 30 15.8865V24.113C30 29.5725 29.5725 30 24.1135 30H15.8865C10.4275 30 10 29.5725 10 24.1135V15.8865C10 10.427 10.4275 10 15.8865 10H24.1135ZM16.5145 25.5V17.364H13.986V25.5H16.5145ZM15.2505 16.2005C16.063 16.2005 16.724 15.5395 16.724 14.726C16.724 13.9135 16.063 13.2525 15.2505 13.2525C14.436 13.2525 13.776 13.9125 13.776 14.726C13.776 15.5395 14.435 16.2005 15.2505 16.2005ZM26 25.5V21.0375C26 18.8465 25.527 17.1615 22.9665 17.1615C21.7365 17.1615 20.912 17.836 20.574 18.4755H20.54V17.364H18.1145V25.5H20.6415V21.475C20.6415 20.414 20.844 19.386 22.1595 19.386C23.4565 19.386 23.4735 20.5995 23.4735 21.5435V25.5H26Z" fill="#6F6F6F"/>
</g>
<defs>
<clipPath id="clip0_1210_960">
<rect width="40" height="40" fill="white"/>
</clipPath>
</defs>
</svg>
