
<svg width="152" height="24" viewBox="0 0 152 24" fill="none" xmlns="http://www.w3.org/2000/svg">
<path d="M37.831 15.72V18.984H26.8516V3.79196H30.6705V15.72H37.831Z" fill="#393939"/>
<path d="M43.4465 7.17596C44.9741 7.17596 46.2073 7.33596 47.1461 7.65596C48.0849 7.97596 48.7691 8.56796 49.1988 9.43196C49.6443 10.28 49.8671 11.512 49.8671 13.128V18.984H46.4062L46.2868 17.88H46.2152C45.9129 18.28 45.4435 18.6 44.807 18.84C44.1705 19.08 43.3431 19.2 42.3247 19.2C39.5719 19.2 38.1955 17.904 38.1955 15.312C38.1955 14.208 38.5535 13.344 39.2696 12.72C40.0015 12.08 41.1472 11.76 42.7066 11.76H46.2391C46.1277 11.088 45.8413 10.64 45.3799 10.416C44.9184 10.176 44.1307 10.056 43.0169 10.056C42.3168 10.056 41.6246 10.112 40.9404 10.224C40.272 10.32 39.6833 10.432 39.1741 10.56L39.1025 10.512L39.1264 7.72796C39.4446 7.63196 39.8504 7.54396 40.3436 7.46396C40.8369 7.36796 41.3541 7.29596 41.8951 7.24796C42.452 7.19996 42.9692 7.17596 43.4465 7.17596ZM43.3033 16.368C44.2899 16.368 45.0298 16.248 45.5231 16.008C46.0163 15.752 46.2709 15.352 46.2868 14.808V14.208H43.5897C42.8896 14.208 42.3963 14.312 42.1099 14.52C41.8394 14.712 41.7041 14.976 41.7041 15.312C41.7041 15.712 41.8474 15.992 42.1338 16.152C42.4202 16.296 42.81 16.368 43.3033 16.368Z" fill="#393939"/>
<path d="M55.7051 19.2C54.2412 19.2 53.1989 18.808 52.5784 18.024C51.9578 17.24 51.6475 16.12 51.6475 14.664V7.29596H55.4664L55.4903 13.728C55.4903 14.448 55.6176 14.96 55.8722 15.264C56.1268 15.552 56.6439 15.696 57.4236 15.696C58.1715 15.696 58.6727 15.568 58.9273 15.312C59.1978 15.04 59.341 14.584 59.3569 13.944V7.29596H63.1759V18.984H59.5479L59.3569 17.664H59.2853C59.0785 18.128 58.6568 18.504 58.0203 18.792C57.3838 19.064 56.6121 19.2 55.7051 19.2Z" fill="#393939"/>
<path d="M69.3762 18.984H65.5573V7.29596H69.1853L69.3762 9.43196H69.4478C69.6706 8.71196 70.0684 8.15996 70.6412 7.77596C71.2141 7.37596 72.0097 7.17596 73.028 7.17596C74.4124 7.17596 75.4308 7.56796 76.0832 8.35196C76.7515 9.13596 77.0856 10.496 77.0856 12.432V18.984H73.2667L73.2429 13.176C73.2429 12.28 73.1076 11.64 72.8371 11.256C72.5666 10.872 72.0574 10.68 71.3095 10.68C70.6094 10.68 70.1161 10.856 69.8297 11.208C69.5433 11.544 69.3921 12.128 69.3762 12.96V18.984Z" fill="#393939"/>
<path d="M88.2744 15.6V18.72C87.8766 18.88 87.2879 19 86.5082 19.08C85.7285 19.16 84.9011 19.2 84.0259 19.2C82.7688 19.2 81.7186 19.024 80.8753 18.672C80.0479 18.32 79.4273 17.712 79.0136 16.848C78.6158 15.984 78.4089 14.784 78.393 13.248C78.393 11.664 78.6078 10.432 79.0374 9.55196C79.483 8.67196 80.1274 8.05596 80.9708 7.70396C81.8141 7.35196 82.8245 7.17596 84.002 7.17596C84.7022 7.17596 85.4421 7.22396 86.2218 7.31996C87.0015 7.41596 87.638 7.54396 88.1312 7.70396L88.1551 10.92L88.0835 10.968C87.6061 10.872 87.097 10.8 86.5559 10.752C86.0149 10.704 85.4819 10.68 84.9568 10.68C83.8906 10.68 83.1507 10.88 82.737 11.28C82.3233 11.68 82.1164 12.352 82.1164 13.296C82.1164 14.016 82.204 14.552 82.379 14.904C82.554 15.256 82.8484 15.488 83.2621 15.6C83.6758 15.712 84.2407 15.768 84.9568 15.768C85.5137 15.768 86.0467 15.744 86.5559 15.696C87.0651 15.648 87.6061 15.592 88.179 15.528L88.2744 15.6Z" fill="#393939"/>
<path d="M93.7582 18.984H89.9393V2.85596H93.7582V9.43196H93.8298C94.0526 8.71196 94.4583 8.15996 95.0471 7.77596C95.6517 7.37596 96.4394 7.17596 97.41 7.17596C98.3329 7.17596 99.0888 7.32796 99.6775 7.63196C100.282 7.93596 100.728 8.47196 101.014 9.23996C101.316 9.99196 101.468 11.056 101.468 12.432V18.984H97.6487L97.6248 13.176C97.6248 12.28 97.4896 11.64 97.2191 11.256C96.9486 10.872 96.4394 10.68 95.6915 10.68C95.0232 10.68 94.5379 10.856 94.2355 11.208C93.9332 11.56 93.7741 12.152 93.7582 12.984V18.984Z" fill="#393939"/>
<path d="M113.827 18.5999C113.381 18.7599 112.761 18.9039 111.965 19.0319C111.185 19.1439 110.255 19.1999 109.173 19.1999C107.804 19.1999 106.635 19.0239 105.664 18.6719C104.709 18.3039 103.985 17.6879 103.492 16.8239C102.999 15.9439 102.752 14.7279 102.752 13.1759C102.752 11.0639 103.229 9.53593 104.184 8.59193C105.155 7.64793 106.65 7.17593 108.671 7.17593C110.119 7.17593 111.257 7.38393 112.084 7.79993C112.928 8.21593 113.524 8.80793 113.875 9.57593C114.241 10.3279 114.424 11.2239 114.424 12.2639C114.424 12.5679 114.408 12.8959 114.376 13.2479C114.36 13.5999 114.32 13.9439 114.256 14.2799L114.161 14.3759H106.308C106.42 15.0799 106.746 15.5439 107.287 15.7679C107.844 15.9919 108.743 16.1039 109.984 16.1039C110.811 16.1039 111.496 16.0879 112.037 16.0559C112.594 16.0079 113.159 15.9439 113.731 15.8639L113.827 15.9359V18.5999ZM111.106 11.8559C111.106 11.4719 111.042 11.1439 110.915 10.8719C110.804 10.5839 110.573 10.3679 110.223 10.2239C109.873 10.0639 109.356 9.98393 108.671 9.98393C107.669 9.98393 107.008 10.1599 106.69 10.5119C106.388 10.8479 106.237 11.2959 106.237 11.8559H111.106Z" fill="#4589FF"/>
<path d="M120.392 7.17593C121.92 7.17593 123.153 7.33593 124.092 7.65593C125.03 7.97593 125.715 8.56793 126.144 9.43193C126.59 10.2799 126.813 11.5119 126.813 13.1279V18.9839H123.352L123.232 17.8799H123.161C122.858 18.2799 122.389 18.5999 121.753 18.8399C121.116 19.0799 120.289 19.1999 119.27 19.1999C116.517 19.1999 115.141 17.9039 115.141 15.3119C115.141 14.2079 115.499 13.3439 116.215 12.7199C116.947 12.0799 118.093 11.7599 119.652 11.7599H123.185C123.073 11.0879 122.787 10.6399 122.325 10.4159C121.864 10.1759 121.076 10.0559 119.962 10.0559C119.262 10.0559 118.57 10.1119 117.886 10.2239C117.218 10.3199 116.629 10.4319 116.12 10.5599L116.048 10.5119L116.072 7.72793C116.39 7.63193 116.796 7.54393 117.289 7.46393C117.782 7.36793 118.3 7.29593 118.841 7.24793C119.398 7.19993 119.915 7.17593 120.392 7.17593ZM120.249 16.3679C121.235 16.3679 121.975 16.2479 122.469 16.0079C122.962 15.7519 123.216 15.3519 123.232 14.8079V14.2079H120.535C119.835 14.2079 119.342 14.3119 119.055 14.5199C118.785 14.7119 118.65 14.9759 118.65 15.3119C118.65 15.7119 118.793 15.9919 119.079 16.1519C119.366 16.2959 119.756 16.3679 120.249 16.3679Z" fill="#4589FF"/>
<path d="M133.749 10.4159H128.569V7.31993H138.761V10.0799L133.605 15.7919V15.8399H139.143V18.9359H128.187V16.4159L133.749 10.4639V10.4159Z" fill="#4589FF"/>
<path d="M141.951 23.3999L143.789 19.0079L139.183 7.34393V7.29593H143.455C143.901 8.55993 144.314 9.83193 144.696 11.1119C145.094 12.3919 145.412 13.7039 145.651 15.0479H145.699C145.937 13.7199 146.24 12.4159 146.606 11.1359C146.988 9.85593 147.417 8.57593 147.895 7.29593H152V7.36793L145.866 23.4479H141.951V23.3999Z" fill="#4589FF"/>
<path d="M12.513 9.60001H1.81157C0.200865 9.60001 -0.605783 11.5582 0.533158 12.7034L11.2346 23.4639C12.3735 24.6091 14.3209 23.798 14.3209 22.1784V11.4179C14.3209 10.4139 13.5115 9.60001 12.513 9.60001Z" fill="#D2E4F9"/>
<path d="M14.3209 9.60001H1.79004L14.3209 22.2V9.60001Z" fill="#BCD6F5"/>
<path d="M14.303 4.79996H3.60161C1.9909 4.79996 1.18426 6.75812 2.3232 7.90334L13.0246 18.6639C14.1636 19.8091 16.111 18.998 16.111 17.3784V6.61788C16.111 5.61387 15.3015 4.79996 14.303 4.79996Z" fill="#79AEEC"/>
<path d="M16.1109 4.79996H3.58008L16.1109 17.4V4.79996Z" fill="#63A0E9"/>
<path d="M16.0931 0H5.39165C3.78094 0 2.9743 1.95816 4.11324 3.10339L14.8147 13.8639C15.9536 15.0091 17.901 14.198 17.901 12.5784V1.81792C17.901 0.813912 17.0916 0 16.0931 0Z" fill="#2077DF"/>
</svg>
