<svg width="203" height="32" viewBox="0 0 203 32" fill="none" xmlns="http://www.w3.org/2000/svg">
<path d="M50.4411 20.9599V25.3119H35.8019V5.05594H40.8938V20.9599H50.4411Z" fill="white"/>
<path d="M57.9285 9.56794C59.9652 9.56794 61.6095 9.78127 62.8613 10.2079C64.113 10.6346 65.0253 11.4239 65.5982 12.5759C66.1922 13.7066 66.4892 15.3493 66.4892 17.5039V25.3119H61.8747L61.7156 23.8399H61.6201C61.217 24.3733 60.5911 24.7999 59.7425 25.1199C58.8938 25.4399 57.7906 25.5999 56.4327 25.5999C52.7623 25.5999 50.9271 23.8719 50.9271 20.4159C50.9271 18.9439 51.4045 17.7919 52.3592 16.9599C53.3352 16.1066 54.8627 15.6799 56.9419 15.6799H61.6519C61.5034 14.7839 61.1215 14.1866 60.5063 13.8879C59.891 13.5679 58.8408 13.4079 57.3557 13.4079C56.4221 13.4079 55.4992 13.4826 54.5869 13.6319C53.6959 13.7599 52.9109 13.9093 52.2319 14.0799L52.1365 14.0159L52.1683 10.3039C52.5926 10.1759 53.1336 10.0586 53.7913 9.95194C54.449 9.82394 55.1386 9.72794 55.8599 9.66394C56.6025 9.59994 57.292 9.56794 57.9285 9.56794ZM57.7375 21.8239C59.0529 21.8239 60.0395 21.6639 60.6972 21.3439C61.3549 21.0026 61.6944 20.4693 61.7156 19.7439V18.9439H58.1194C57.1859 18.9439 56.5282 19.0826 56.1463 19.3599C55.7857 19.6159 55.6053 19.9679 55.6053 20.4159C55.6053 20.9493 55.7963 21.3226 56.1782 21.5359C56.56 21.7279 57.0798 21.8239 57.7375 21.8239Z" fill="white"/>
<path d="M74.2733 25.5999C72.3214 25.5999 70.9317 25.0773 70.1043 24.0319C69.2768 22.9866 68.8631 21.4933 68.8631 19.5519V9.72794H73.955L73.9868 18.3039C73.9868 19.2639 74.1566 19.9466 74.496 20.3519C74.8355 20.7359 75.525 20.9279 76.5646 20.9279C77.5618 20.9279 78.2301 20.7573 78.5695 20.4159C78.9302 20.0533 79.1212 19.4453 79.1424 18.5919V9.72794H84.2343V25.3119H79.397L79.1424 23.5519H79.0469C78.7711 24.1706 78.2089 24.6719 77.3602 25.0559C76.5116 25.4186 75.4826 25.5999 74.2733 25.5999Z" fill="white"/>
<path d="M92.5014 25.3119H87.4095V9.72794H92.2468L92.5014 12.5759H92.5969C92.8939 11.6159 93.4243 10.8799 94.1881 10.3679C94.9519 9.8346 96.0127 9.56794 97.3705 9.56794C99.2163 9.56794 100.574 10.0906 101.444 11.1359C102.335 12.1813 102.781 13.9946 102.781 16.5759V25.3119H97.6888L97.6569 17.5679C97.6569 16.3733 97.4766 15.5199 97.1159 15.0079C96.7552 14.4959 96.0763 14.2399 95.0792 14.2399C94.1456 14.2399 93.4879 14.4746 93.1061 14.9439C92.7242 15.3919 92.5226 16.1706 92.5014 17.2799V25.3119Z" fill="white"/>
<path d="M117.699 20.7999V24.9599C117.169 25.1733 116.384 25.3333 115.344 25.4399C114.304 25.5466 113.201 25.5999 112.034 25.5999C110.358 25.5999 108.958 25.3653 107.834 24.8959C106.73 24.4266 105.903 23.6159 105.351 22.4639C104.821 21.3119 104.545 19.7119 104.524 17.6639C104.524 15.5519 104.81 13.9093 105.383 12.7359C105.977 11.5626 106.836 10.7413 107.961 10.2719C109.085 9.8026 110.432 9.56794 112.002 9.56794C112.936 9.56794 113.923 9.63194 114.962 9.75994C116.002 9.88794 116.85 10.0586 117.508 10.2719L117.54 14.5599L117.444 14.6239C116.808 14.4959 116.129 14.3999 115.408 14.3359C114.686 14.2719 113.976 14.2399 113.275 14.2399C111.854 14.2399 110.867 14.5066 110.316 15.0399C109.764 15.5733 109.488 16.4693 109.488 17.7279C109.488 18.6879 109.605 19.4026 109.838 19.8719C110.072 20.3413 110.464 20.6506 111.016 20.7999C111.568 20.9493 112.321 21.0239 113.275 21.0239C114.018 21.0239 114.729 20.9919 115.408 20.9279C116.087 20.8639 116.808 20.7893 117.572 20.7039L117.699 20.7999Z" fill="white"/>
<path d="M125.011 25.3119H119.919V3.80794H125.011V12.5759H125.106C125.403 11.6159 125.944 10.8799 126.729 10.3679C127.535 9.8346 128.586 9.56794 129.88 9.56794C131.11 9.56794 132.118 9.77061 132.903 10.1759C133.709 10.5813 134.303 11.2959 134.685 12.3199C135.088 13.3226 135.29 14.7413 135.29 16.5759V25.3119H130.198L130.166 17.5679C130.166 16.3733 129.986 15.5199 129.625 15.0079C129.265 14.4959 128.586 14.2399 127.588 14.2399C126.697 14.2399 126.05 14.4746 125.647 14.9439C125.244 15.4133 125.032 16.2026 125.011 17.3119V25.3119Z" fill="white"/>
<path d="M151.769 24.7999C151.175 25.0132 150.347 25.2052 149.287 25.3759C148.247 25.5252 147.006 25.5999 145.563 25.5999C143.739 25.5999 142.179 25.3652 140.885 24.8959C139.612 24.4052 138.647 23.5839 137.989 22.4319C137.331 21.2586 137.002 19.6372 137.002 17.5679C137.002 14.7519 137.639 12.7146 138.912 11.4559C140.206 10.1972 142.2 9.5679 144.895 9.5679C146.826 9.5679 148.343 9.84524 149.446 10.3999C150.57 10.9546 151.366 11.7439 151.833 12.7679C152.321 13.7706 152.565 14.9652 152.565 16.3519C152.565 16.7572 152.543 17.1946 152.501 17.6639C152.48 18.1332 152.427 18.5919 152.342 19.0399L152.214 19.1679H141.744C141.893 20.1066 142.328 20.7252 143.049 21.0239C143.792 21.3226 144.99 21.4719 146.645 21.4719C147.748 21.4719 148.661 21.4506 149.382 21.4079C150.125 21.3439 150.878 21.2586 151.642 21.1519L151.769 21.2479V24.7999ZM148.141 15.8079C148.141 15.2959 148.056 14.8586 147.886 14.4959C147.738 14.1119 147.43 13.8239 146.963 13.6319C146.497 13.4186 145.807 13.3119 144.895 13.3119C143.558 13.3119 142.678 13.5466 142.253 14.0159C141.85 14.4639 141.649 15.0612 141.649 15.8079H148.141Z" fill="#2196F3"/>
<path d="M160.523 9.5679C162.559 9.5679 164.204 9.78123 165.455 10.2079C166.707 10.6346 167.619 11.4239 168.192 12.5759C168.786 13.7066 169.083 15.3492 169.083 17.5039V25.3119H164.469L164.31 23.8399H164.214C163.811 24.3732 163.185 24.7999 162.337 25.1199C161.488 25.4399 160.385 25.5999 159.027 25.5999C155.356 25.5999 153.521 23.8719 153.521 20.4159C153.521 18.9439 153.999 17.7919 154.953 16.9599C155.929 16.1066 157.457 15.6799 159.536 15.6799H164.246C164.098 14.7839 163.716 14.1866 163.1 13.8879C162.485 13.5679 161.435 13.4079 159.95 13.4079C159.016 13.4079 158.093 13.4826 157.181 13.6319C156.29 13.7599 155.505 13.9092 154.826 14.0799L154.731 14.0159L154.762 10.3039C155.187 10.1759 155.728 10.0586 156.385 9.9519C157.043 9.8239 157.733 9.7279 158.454 9.6639C159.197 9.5999 159.886 9.5679 160.523 9.5679ZM160.332 21.8239C161.647 21.8239 162.634 21.6639 163.291 21.3439C163.949 21.0026 164.288 20.4692 164.31 19.7439V18.9439H160.714C159.78 18.9439 159.122 19.0826 158.74 19.3599C158.38 19.6159 158.199 19.9679 158.199 20.4159C158.199 20.9492 158.39 21.3226 158.772 21.5359C159.154 21.7279 159.674 21.8239 160.332 21.8239Z" fill="#2196F3"/>
<path d="M178.331 13.8879H171.425V9.7599H185.014V13.4399L178.14 21.0559V21.1199H185.524V25.2479H170.916V21.8879L178.331 13.9519V13.8879Z" fill="#2196F3"/>
<path d="M189.268 31.1999L191.719 25.3439L185.577 9.7919V9.7279H191.273C191.867 11.4132 192.419 13.1092 192.928 14.8159C193.459 16.5226 193.883 18.2719 194.201 20.0639H194.265C194.583 18.2932 194.986 16.5546 195.474 14.8479C195.983 13.1412 196.556 11.4346 197.193 9.7279H202.666V9.8239L194.488 31.2639H189.268V31.1999Z" fill="#2196F3"/>
<path d="M16.684 12.8H2.41543C0.267819 12.8 -0.80771 15.4109 0.710877 16.9379L14.9795 31.2852C16.498 32.8122 19.0946 31.7307 19.0946 29.5712V15.2239C19.0946 13.8852 18.0153 12.8 16.684 12.8Z" fill="#D2E4F9"/>
<path d="M19.0945 12.8H2.38672L19.0945 29.6V12.8Z" fill="#BCD6F5"/>
<path d="M19.0707 6.39996H4.80215C2.65454 6.39996 1.57901 9.01084 3.0976 10.5378L17.3662 24.8852C18.8848 26.4121 21.4813 25.3307 21.4813 23.1712V8.82386C21.4813 7.48518 20.4021 6.39996 19.0707 6.39996Z" fill="#79AEEC"/>
<path d="M21.4812 6.39996H4.77344L21.4812 23.2V6.39996Z" fill="#63A0E9"/>
<path d="M21.4576 0H7.18899C5.04138 0 3.96585 2.61088 5.48444 4.13785L19.753 18.4852C21.2716 20.0122 23.8682 18.9307 23.8682 16.7712V2.4239C23.8682 1.08522 22.7889 0 21.4576 0Z" fill="#2077DF"/>
</svg>
