<svg xmlns="http://www.w3.org/2000/svg" width="20" height="20" viewBox="0 0 20 20" fill="none">
  <mask id="mask0_680_433" style="mask-type:alpha" maskUnits="userSpaceOnUse" x="0" y="0" width="20" height="20">
    <rect width="20" height="20" fill="#0070DD"/>
  </mask>
  <g mask="url(#mask0_680_433)">
    <path d="M7.25001 14.4167C7.09723 14.264 7.02084 14.0695 7.02084 13.8334C7.02084 13.5973 7.09723 13.4029 7.25001 13.2501L10.5 10.0001L7.25001 6.75008C7.09723 6.5973 7.02084 6.40286 7.02084 6.16675C7.02084 5.93064 7.09723 5.73619 7.25001 5.58341C7.40279 5.43064 7.59723 5.35425 7.83334 5.35425C8.06945 5.35425 8.2639 5.43064 8.41668 5.58341L12.25 9.41675C12.3333 9.50008 12.3924 9.59036 12.4271 9.68758C12.4618 9.7848 12.4792 9.88897 12.4792 10.0001C12.4792 10.1112 12.4618 10.2154 12.4271 10.3126C12.3924 10.4098 12.3333 10.5001 12.25 10.5834L8.41668 14.4167C8.2639 14.5695 8.06945 14.6459 7.83334 14.6459C7.59723 14.6459 7.40279 14.5695 7.25001 14.4167Z" fill="#4589FF"/>
  </g>
</svg>