<svg width="22" height="22" viewBox="0 0 22 22" fill="none" xmlns="http://www.w3.org/2000/svg">
<circle cx="11" cy="11" r="10.3" stroke="#393939" stroke-width="1.4"/>
<path d="M10.9782 15.1193C10.3418 15.1193 9.77504 15.0099 9.27788 14.7912C8.78356 14.5696 8.39293 14.2656 8.106 13.8793C7.82191 13.4901 7.6756 13.0412 7.66708 12.5327H9.52504C9.5364 12.7457 9.606 12.9332 9.73384 13.0952C9.86452 13.2543 10.0378 13.3778 10.2537 13.4659C10.4696 13.554 10.7125 13.598 10.9824 13.598C11.2637 13.598 11.5123 13.5483 11.7282 13.4489C11.9441 13.3494 12.1131 13.2116 12.2353 13.0355C12.3574 12.8594 12.4185 12.6562 12.4185 12.4261C12.4185 12.1932 12.3532 11.9872 12.2225 11.8082C12.0946 11.6264 11.91 11.4844 11.6685 11.3821C11.4299 11.2798 11.1458 11.2287 10.8162 11.2287H10.0023V9.87358H10.8162C11.0946 9.87358 11.3404 9.82528 11.5534 9.72869C11.7694 9.6321 11.937 9.49858 12.0563 9.32812C12.1756 9.15483 12.2353 8.95312 12.2353 8.72301C12.2353 8.50426 12.1827 8.3125 12.0776 8.14773C11.9753 7.98011 11.8304 7.84943 11.6429 7.75568C11.4583 7.66193 11.2424 7.61506 10.9952 7.61506C10.7452 7.61506 10.5165 7.66051 10.3091 7.75142C10.1017 7.83949 9.93555 7.96591 9.81055 8.13068C9.68555 8.29545 9.61879 8.48864 9.61026 8.71023H7.8418C7.85032 8.20739 7.99379 7.7642 8.27219 7.38068C8.5506 6.99716 8.9256 6.69744 9.39719 6.48153C9.87163 6.26278 10.4071 6.15341 11.0037 6.15341C11.606 6.15341 12.133 6.26278 12.5847 6.48153C13.0364 6.70028 13.3873 6.99574 13.6373 7.3679C13.8901 7.73722 14.0151 8.15199 14.0123 8.61222C14.0151 9.10085 13.8631 9.50852 13.5563 9.83523C13.2523 10.1619 12.856 10.3693 12.3674 10.4574V10.5256C13.0094 10.608 13.498 10.831 13.8333 11.1946C14.1713 11.5554 14.339 12.0071 14.3361 12.5497C14.339 13.0469 14.1955 13.4886 13.9057 13.875C13.6188 14.2614 13.2225 14.5653 12.7168 14.7869C12.2111 15.0085 11.6316 15.1193 10.9782 15.1193Z" fill="#393939"/>
</svg>
