<svg width="22" height="22" viewBox="0 0 22 22" fill="none" xmlns="http://www.w3.org/2000/svg">
<circle cx="11" cy="11" r="10.3" stroke="#393939" stroke-width="1.4"/>
<path d="M7.92809 15V13.6705L11.0346 10.794C11.2988 10.5384 11.5204 10.3082 11.6994 10.1037C11.8812 9.89915 12.019 9.69886 12.1127 9.50284C12.2065 9.30398 12.2534 9.08949 12.2534 8.85938C12.2534 8.60369 12.1951 8.38352 12.0787 8.19886C11.9622 8.01136 11.8031 7.8679 11.6014 7.76847C11.3997 7.66619 11.171 7.61506 10.9153 7.61506C10.6483 7.61506 10.4153 7.66903 10.2164 7.77699C10.0176 7.88494 9.86417 8.03977 9.75621 8.24148C9.64826 8.44318 9.59428 8.68324 9.59428 8.96165H7.84286C7.84286 8.39062 7.97212 7.89489 8.23065 7.47443C8.48917 7.05398 8.85138 6.72869 9.31729 6.49858C9.7832 6.26847 10.3201 6.15341 10.9281 6.15341C11.5531 6.15341 12.0971 6.2642 12.5602 6.4858C13.0261 6.70455 13.3883 7.00852 13.6468 7.39773C13.9054 7.78693 14.0346 8.23295 14.0346 8.7358C14.0346 9.06534 13.9693 9.39062 13.8386 9.71165C13.7108 10.0327 13.4821 10.3892 13.1525 10.7812C12.823 11.1705 12.3585 11.6378 11.7591 12.1832L10.4849 13.4318V13.4915H14.1497V15H7.92809Z" fill="#393939"/>
</svg>
