<svg width="40" height="40" viewBox="0 0 40 40" fill="none" xmlns="http://www.w3.org/2000/svg">
<g clip-path="url(#clip0_1210_969)">
<circle cx="20" cy="20" r="20" fill="#161616"/>
<path d="M30.7635 12.2135C31.857 13.3385 32 15.126 32 19.5C32 23.874 31.857 25.6615 30.7635 26.7865C29.67 27.911 28.531 28 20 28C11.469 28 10.33 27.911 9.2365 26.7865C8.143 25.6615 8 23.874 8 19.5C8 15.126 8.143 13.3385 9.2365 12.2135C10.33 11.0885 11.469 11 20 11C28.531 11 29.67 11.089 30.7635 12.2135ZM17.975 23.2085L24.048 19.6895L17.975 16.2255V23.2085Z"fill="#6F6F6F"/>
</g>
<defs>
<clipPath id="clip0_1210_969">
<rect width="40" height="40" fill="white"/>
</clipPath>
</defs>
</svg>
